<?xml version="1.0" encoding="UTF-8" standalone="no"?>
<!-- Created with Inkscape (http://www.inkscape.org/) -->

<svg
   width="1100"
   height="300"
   viewBox="0 0 291.04166 79.375002"
   version="1.1"
   id="svg5"
   inkscape:version="1.1.1 (1:1.1+202109281946+c3084ef5ed)"
   sodipodi:docname="Ros.svg"
   xmlns:inkscape="http://www.inkscape.org/namespaces/inkscape"
   xmlns:sodipodi="http://sodipodi.sourceforge.net/DTD/sodipodi-0.dtd"
   xmlns="http://www.w3.org/2000/svg"
   xmlns:svg="http://www.w3.org/2000/svg">
  <sodipodi:namedview
     id="namedview7"
     pagecolor="#ffffff"
     bordercolor="#666666"
     borderopacity="1.0"
     inkscape:pageshadow="2"
     inkscape:pageopacity="0.0"
     inkscape:pagecheckerboard="0"
     inkscape:document-units="mm"
     showgrid="false"
     inkscape:zoom="0.74742565"
     inkscape:cx="527.14273"
     inkscape:cy="239.4887"
     inkscape:window-width="1920"
     inkscape:window-height="1011"
     inkscape:window-x="0"
     inkscape:window-y="32"
     inkscape:window-maximized="1"
     inkscape:current-layer="surface839"
     units="px"
     width="1100px" />
  <defs
     id="defs2">
    <clipPath
       id="clip1">
      <path
         id="path7"
         d="M 0.0585938,2 H 22 V 25 H 0.0585938 Z m 0,0"
         inkscape:connector-curvature="0" />
    </clipPath>
    <clipPath
       id="clip2">
      <path
         id="path10"
         d="M 0.0585938,40 H 22 V 64 H 0.0585938 Z m 0,0"
         inkscape:connector-curvature="0" />
    </clipPath>
    <clipPath
       id="clip3">
      <path
         id="path13"
         d="M 0.0585938,79 H 22 v 23 H 0.0585938 Z m 0,0"
         inkscape:connector-curvature="0" />
    </clipPath>
    <clipPath
       id="clip4">
      <path
         id="path16"
         d="m 220,0.894531 h 82 V 102.94141 h -82 z m 0,0"
         inkscape:connector-curvature="0" />
    </clipPath>
    <clipPath
       id="clip5">
      <path
         id="path19"
         d="m 316,0.894531 h 70.05078 V 102.94141 H 316 Z m 0,0"
         inkscape:connector-curvature="0" />
    </clipPath>
  </defs>
  <g
     inkscape:label="Layer 1"
     inkscape:groupmode="layer"
     id="layer1">
    <g
       id="surface839"
       transform="matrix(0.68546293,0,0,0.68546293,5.5423675,69.631444)">
      <g
         id="g22"
         clip-path="url(#clip1)"
         style="clip-rule:nonzero;fill:#ffffff"
         transform="matrix(1.0764801,0,0,1.0764801,-3.6820279,-98.910254)">
        <path
           id="path24"
           d="m 21.839844,13.492188 c 0,6.230468 -4.890625,11.285156 -10.917969,11.285156 C 4.890625,24.777344 0,19.722656 0,13.492188 0,7.257812 4.890625,2.207031 10.921875,2.207031 c 6.027344,0 10.917969,5.050781 10.917969,11.285157"
           style="fill:#ffffff;fill-opacity:1;fill-rule:nonzero;stroke:none"
           inkscape:connector-curvature="0" />
      </g>
      <g
         id="g26"
         clip-path="url(#clip2)"
         style="clip-rule:nonzero;fill:#ffffff"
         transform="matrix(1.0764801,0,0,1.0764801,-3.6820279,-98.910254)">
        <path
           id="path28"
           d="m 21.839844,51.949219 c 0,6.230469 -4.890625,11.285156 -10.917969,11.285156 C 4.890625,63.234375 0,58.179688 0,51.949219 0,45.714844 4.890625,40.664062 10.921875,40.664062 c 6.027344,0 10.917969,5.050782 10.917969,11.285157"
           style="fill:#ffffff;fill-opacity:1;fill-rule:nonzero;stroke:none"
           inkscape:connector-curvature="0" />
      </g>
      <g
         id="g30"
         clip-path="url(#clip3)"
         style="clip-rule:nonzero;fill:#ffffff"
         transform="matrix(1.0764801,0,0,1.0764801,-3.6820279,-98.910254)">
        <path
           id="path32"
           d="m 21.839844,90.40625 c 0,6.230469 -4.890625,11.28516 -10.917969,11.28516 C 4.890625,101.69141 0,96.636719 0,90.40625 0,84.175781 4.890625,79.121094 10.921875,79.121094 c 6.027344,0 10.917969,5.054687 10.917969,11.285156"
           style="fill:#ffffff;fill-opacity:1;fill-rule:nonzero;stroke:none"
           inkscape:connector-curvature="0" />
      </g>
      <path
         id="path34"
         d="m 60.847908,-42.98795 c 0,6.706976 -5.260455,12.148245 -11.752976,12.148245 -6.492521,0 -11.757181,-5.441269 -11.757181,-12.148245 0,-6.711179 5.26466,-12.148246 11.757181,-12.148246 6.492521,0 11.752976,5.437067 11.752976,12.148246"
         style="fill:#ffffff;fill-opacity:1;fill-rule:nonzero;stroke:none;stroke-width:1.07648"
         inkscape:connector-curvature="0" />
      <path
         id="path36"
         d="m 60.847908,-84.386178 c 0,6.706975 -5.260455,12.148245 -11.752976,12.148245 -6.492521,0 -11.757181,-5.44127 -11.757181,-12.148245 0,-6.711182 5.26466,-12.148247 11.757181,-12.148247 6.492521,0 11.752976,5.437065 11.752976,12.148247"
         style="fill:#ffffff;fill-opacity:1;fill-rule:nonzero;stroke:none;stroke-width:1.07648"
         inkscape:connector-curvature="0" />
      <path
         id="path38"
         d="m 101.8719,-42.98795 c 0,6.706976 -5.26467,12.148245 -11.757191,12.148245 -6.49252,0 -11.752975,-5.441269 -11.752975,-12.148245 0,-6.711179 5.260455,-12.148246 11.752975,-12.148246 6.492521,0 11.757191,5.437067 11.757191,12.148246"
         style="fill:#ffffff;fill-opacity:1;fill-rule:nonzero;stroke:none;stroke-width:1.07648"
         inkscape:connector-curvature="0" />
      <path
         id="path40"
         d="m 101.8719,-84.386178 c 0,6.706975 -5.26467,12.148245 -11.757191,12.148245 -6.49252,0 -11.752975,-5.44127 -11.752975,-12.148245 0,-6.711182 5.260455,-12.148247 11.752975,-12.148247 6.492521,0 11.757191,5.437065 11.757191,12.148247"
         style="fill:#ffffff;fill-opacity:1;fill-rule:nonzero;stroke:none;stroke-width:1.07648"
         inkscape:connector-curvature="0" />
      <path
         id="path42"
         d="m 101.8719,-1.589722 c 0,6.7069763 -5.26467,12.148251 -11.757191,12.148251 -6.49252,0 -11.752975,-5.4412747 -11.752975,-12.148251 0,-6.7069752 5.260455,-12.148246 11.752975,-12.148246 6.492521,0 11.757191,5.4412708 11.757191,12.148246"
         style="fill:#ffffff;fill-opacity:1;fill-rule:nonzero;stroke:none;stroke-width:1.07648"
         inkscape:connector-curvature="0" />
      <path
         id="path44"
         d="m 60.847908,-1.589722 c 0,6.7069763 -5.260455,12.148251 -11.752976,12.148251 -6.492521,0 -11.757181,-5.4412747 -11.757181,-12.148251 0,-6.7069752 5.26466,-12.148246 11.757181,-12.148246 6.492521,0 11.752976,5.4412708 11.752976,12.148246"
         style="fill:#ffffff;fill-opacity:1;fill-rule:nonzero;stroke:none;stroke-width:1.07648"
         inkscape:connector-curvature="0" />
      <path
         id="path46"
         d="m 181.05625,-81.198788 h -30.05314 v 34.249726 h 30.05314 c 10.31066,0 17.52644,-5.479113 17.52644,-17.04707 0,-11.113816 -7.06861,-17.202656 -17.52644,-17.202656 z m 10.45783,47.953823 21.06285,43.538572 H 194.75614 L 174.27779,-31.874134 H 151.00311 V 10.293607 H 135.83146 V -96.273714 h 45.22479 c 17.97216,0 33.1438,9.89857 33.1438,31.819237 0,17.051276 -8.69173,27.555368 -22.68597,31.209512"
         style="fill:#ffffff;fill-opacity:1;fill-rule:nonzero;stroke:none;stroke-width:1.07648"
         inkscape:connector-curvature="0" />
      <g
         id="g48"
         clip-path="url(#clip4)"
         style="clip-rule:nonzero;fill:#ffffff"
         transform="matrix(1.0764801,0,0,1.0764801,-3.6820279,-98.910254)">
        <path
           id="path50"
           d="m 260.5625,15.746094 c -16.69531,0 -25.86328,14 -25.86328,36.203125 0,22.203125 9.16797,36.203125 25.86328,36.203125 16.83203,0 26,-14 26,-36.203125 0,-22.203125 -9.16797,-36.203125 -26,-36.203125 z m 0,87.253906 c -24.76563,0 -40.50391,-21.070312 -40.50391,-51.050781 0,-29.980469 15.73828,-51.054688 40.50391,-51.054688 24.90625,0 40.64062,21.074219 40.64062,51.054688 C 301.20312,81.929688 285.46875,103 260.5625,103"
           style="fill:#ffffff;fill-opacity:1;fill-rule:nonzero;stroke:none"
           inkscape:connector-curvature="0" />
      </g>
      <g
         id="g52"
         clip-path="url(#clip5)"
         style="clip-rule:nonzero;fill:#ffffff"
         transform="matrix(1.0764801,0,0,1.0764801,-3.6820279,-98.910254)">
        <path
           id="path54"
           d="m 350.60937,103 c -13.96093,0 -26,-6.222656 -34.07421,-15.980469 l 10.26171,-10.324219 c 6.4336,7.214844 15.875,11.738282 24.90625,11.738282 13.41016,0 19.83985,-4.808594 19.83985,-14.425782 0,-7.636718 -5.60938,-11.453124 -21.6211,-16.402343 -20.25,-6.222657 -29.96484,-11.457031 -29.96484,-29.132813 0,-17.113281 13.95703,-27.578125 31.60938,-27.578125 13,0 22.85156,4.953125 31.33593,13.4375 l -10.125,10.605469 c -6.02343,-6.363281 -12.86328,-9.476562 -22.30468,-9.476562 -11.22266,0 -16.01172,5.65625 -16.01172,12.304687 0,6.929687 4.3789,10.324219 20.9375,15.414063 18.88281,5.941406 30.65234,12.164062 30.65234,29.839843 C 386.05078,90.839844 375.10156,103 350.60937,103"
           style="fill:#ffffff;fill-opacity:1;fill-rule:nonzero;stroke:none"
           inkscape:connector-curvature="0" />
      </g>
    </g>
  </g>
</svg>
