<svg xmlns="http://www.w3.org/2000/svg" width="60" viewBox="0 0 60 30" height="30" version="1.0"><defs><clipPath id="a"><path d="M 4 8.90625 L 13 8.90625 L 13 14 L 4 14 Z M 4 8.90625"/></clipPath><clipPath id="b"><path d="M 12 9 L 14.597656 9 L 14.597656 16 L 12 16 Z M 12 9"/></clipPath><clipPath id="c"><path d="M 8 13 L 14.597656 13 L 14.597656 20.164062 L 8 20.164062 Z M 8 13"/></clipPath><clipPath id="d"><path d="M 6 17 L 12 17 L 12 20.164062 L 6 20.164062 Z M 6 17"/></clipPath><clipPath id="e"><path d="M 2.417969 9 L 7 9 L 7 20.164062 L 2.417969 20.164062 Z M 2.417969 9"/></clipPath><clipPath id="f"><path d="M 2.417969 12 L 6 12 L 6 14 L 2.417969 14 Z M 2.417969 12"/></clipPath></defs><g clip-path="url(#a)"><path fill="#432A59" d="M 10.902344 13.175781 C 10.894531 13.175781 10.882812 13.175781 10.875 13.167969 L 8.496094 11.726562 L 6.15625 13.167969 C 6.140625 13.179688 6.121094 13.179688 6.101562 13.171875 L 4.953125 12.554688 C 4.933594 12.542969 4.921875 12.527344 4.921875 12.507812 C 4.921875 12.484375 4.929688 12.46875 4.949219 12.457031 L 7.351562 11.042969 L 4.949219 9.707031 C 4.929688 9.699219 4.921875 9.679688 4.921875 9.660156 C 4.921875 9.636719 4.929688 9.621094 4.949219 9.609375 L 6.121094 8.917969 C 6.136719 8.90625 6.15625 8.90625 6.175781 8.917969 L 8.496094 10.265625 L 10.847656 8.964844 C 10.863281 8.957031 10.882812 8.957031 10.902344 8.964844 L 12.121094 9.65625 C 12.140625 9.667969 12.148438 9.683594 12.148438 9.703125 C 12.148438 9.726562 12.140625 9.742188 12.121094 9.753906 L 9.847656 11.082031 L 12.121094 12.398438 C 12.140625 12.410156 12.148438 12.425781 12.148438 12.449219 C 12.148438 12.46875 12.140625 12.484375 12.121094 12.496094 L 10.933594 13.167969 C 10.921875 13.175781 10.914062 13.175781 10.902344 13.175781 Z M 5.09375 12.503906 L 6.125 13.054688 L 8.464844 11.609375 C 8.484375 11.597656 8.503906 11.597656 8.523438 11.609375 L 10.90625 13.054688 L 11.980469 12.445312 L 9.707031 11.132812 C 9.6875 11.121094 9.679688 11.105469 9.679688 11.082031 C 9.679688 11.058594 9.6875 11.042969 9.707031 11.03125 L 11.980469 9.707031 L 10.871094 9.082031 L 8.523438 10.382812 C 8.503906 10.390625 8.484375 10.390625 8.46875 10.382812 L 6.148438 9.03125 L 5.089844 9.65625 L 7.492188 10.992188 C 7.511719 11.003906 7.523438 11.019531 7.523438 11.042969 C 7.523438 11.066406 7.511719 11.082031 7.492188 11.09375 Z M 5.09375 12.503906"/></g><g clip-path="url(#b)"><path fill="#432A59" d="M 12.125 15.351562 C 12.085938 15.351562 12.070312 15.332031 12.066406 15.296875 L 12.050781 12.484375 C 12.027344 12.460938 12.027344 12.433594 12.050781 12.410156 L 12.039062 9.707031 C 12.035156 9.667969 12.054688 9.648438 12.09375 9.648438 C 12.128906 9.648438 12.148438 9.667969 12.148438 9.703125 L 12.164062 12.425781 L 14.5625 13.839844 C 14.617188 13.875 14.617188 13.90625 14.5625 13.9375 L 12.152344 15.34375 C 12.144531 15.347656 12.132812 15.351562 12.125 15.351562 Z M 12.164062 12.554688 L 12.179688 15.199219 L 14.421875 13.890625 Z M 12.164062 12.554688"/></g><g clip-path="url(#c)"><path fill="#432A59" d="M 10.980469 20.160156 C 10.945312 20.160156 10.925781 20.144531 10.925781 20.105469 L 10.925781 17.390625 L 8.574219 18.765625 C 8.519531 18.796875 8.492188 18.78125 8.488281 18.714844 L 8.480469 17.335938 C 8.480469 17.316406 8.488281 17.296875 8.507812 17.289062 L 10.851562 15.933594 L 10.847656 13.121094 C 10.847656 13.082031 10.867188 13.0625 10.902344 13.0625 C 10.941406 13.0625 10.960938 13.082031 10.960938 13.121094 L 10.964844 15.964844 C 10.964844 15.988281 10.957031 16.003906 10.9375 16.015625 L 8.59375 17.367188 L 8.601562 18.617188 L 10.953125 17.246094 C 10.972656 17.234375 10.992188 17.234375 11.007812 17.246094 C 11.027344 17.253906 11.039062 17.273438 11.039062 17.292969 L 11.039062 20.007812 L 12.039062 19.4375 L 12.039062 16.660156 C 12.039062 16.636719 12.046875 16.621094 12.066406 16.609375 L 14.476562 15.261719 L 14.476562 13.890625 C 14.476562 13.851562 14.496094 13.832031 14.535156 13.832031 C 14.570312 13.832031 14.589844 13.851562 14.589844 13.890625 L 14.589844 15.296875 C 14.589844 15.316406 14.582031 15.335938 14.5625 15.34375 L 12.148438 16.691406 L 12.148438 19.472656 C 12.148438 19.492188 12.140625 19.507812 12.121094 19.519531 L 11.007812 20.15625 C 11 20.160156 10.992188 20.160156 10.980469 20.160156 Z M 10.980469 20.160156"/></g><path fill="#432A59" d="M 10.910156 16.023438 C 10.898438 16.023438 10.890625 16.019531 10.878906 16.015625 L 8.507812 14.609375 C 8.488281 14.601562 8.480469 14.585938 8.480469 14.5625 L 8.4375 11.660156 C 8.4375 11.621094 8.457031 11.601562 8.496094 11.601562 C 8.53125 11.601562 8.550781 11.621094 8.550781 11.65625 L 8.589844 14.53125 L 10.9375 15.917969 C 10.960938 15.933594 10.972656 15.953125 10.964844 15.980469 C 10.957031 16.007812 10.9375 16.023438 10.910156 16.023438 Z M 10.910156 16.023438"/><path fill="#432A59" d="M 8.535156 17.394531 C 8.527344 17.394531 8.515625 17.390625 8.507812 17.386719 L 6.101562 16.015625 C 6.082031 16.003906 6.074219 15.988281 6.074219 15.964844 C 6.070312 15.945312 6.082031 15.929688 6.101562 15.917969 L 8.507812 14.515625 C 8.539062 14.492188 8.566406 14.5 8.585938 14.535156 C 8.605469 14.566406 8.597656 14.59375 8.5625 14.613281 L 6.242188 15.964844 L 8.5625 17.289062 C 8.589844 17.300781 8.597656 17.324219 8.589844 17.351562 C 8.582031 17.378906 8.566406 17.394531 8.535156 17.394531 Z M 8.535156 17.394531"/><path fill="#432A59" d="M 6.128906 16.023438 C 6.089844 16.023438 6.074219 16.003906 6.074219 15.964844 L 6.074219 13.121094 C 6.074219 13.082031 6.089844 13.0625 6.128906 13.0625 C 6.167969 13.0625 6.183594 13.082031 6.183594 13.121094 L 6.183594 15.964844 C 6.183594 16.003906 6.167969 16.023438 6.128906 16.023438 Z M 6.128906 16.023438"/><g clip-path="url(#d)"><path fill="#432A59" d="M 10.980469 20.160156 C 10.972656 20.160156 10.960938 20.160156 10.953125 20.15625 L 8.546875 18.78125 L 6.15625 20.15625 C 6.101562 20.1875 6.074219 20.171875 6.074219 20.105469 L 6.074219 17.335938 C 6.074219 17.273438 6.101562 17.253906 6.15625 17.289062 L 8.574219 18.667969 L 11.007812 20.054688 C 11.035156 20.070312 11.042969 20.09375 11.035156 20.121094 C 11.027344 20.148438 11.007812 20.160156 10.980469 20.160156 Z M 6.183594 17.433594 L 6.183594 20.007812 L 8.433594 18.714844 Z M 6.183594 17.433594"/></g><g clip-path="url(#e)"><path fill="#432A59" d="M 6.128906 20.160156 C 6.121094 20.160156 6.109375 20.160156 6.101562 20.15625 L 4.878906 19.496094 C 4.859375 19.484375 4.847656 19.46875 4.847656 19.445312 L 4.863281 16.644531 L 2.460938 15.28125 C 2.441406 15.269531 2.429688 15.253906 2.429688 15.230469 L 2.433594 13.824219 C 2.433594 13.800781 2.441406 13.785156 2.460938 13.773438 C 2.480469 13.765625 2.5 13.765625 2.519531 13.777344 L 4.882812 15.242188 L 4.921875 9.660156 C 4.921875 9.621094 4.941406 9.601562 4.976562 9.601562 C 5.015625 9.601562 5.035156 9.621094 5.035156 9.660156 L 4.996094 15.339844 C 4.996094 15.363281 4.984375 15.378906 4.96875 15.390625 C 4.949219 15.402344 4.929688 15.402344 4.910156 15.390625 L 2.546875 13.925781 L 2.542969 15.199219 L 4.949219 16.5625 C 4.96875 16.574219 4.976562 16.589844 4.976562 16.613281 L 4.960938 19.414062 L 6.15625 20.054688 C 6.179688 20.070312 6.191406 20.089844 6.183594 20.121094 C 6.175781 20.148438 6.15625 20.160156 6.128906 20.160156 Z M 6.128906 20.160156"/></g><g clip-path="url(#f)"><path fill="#432A59" d="M 2.488281 13.878906 C 2.460938 13.878906 2.441406 13.867188 2.433594 13.839844 C 2.429688 13.808594 2.4375 13.789062 2.464844 13.773438 L 4.953125 12.453125 C 4.984375 12.4375 5.011719 12.445312 5.027344 12.476562 C 5.046875 12.511719 5.039062 12.539062 5.003906 12.554688 L 2.515625 13.875 C 2.507812 13.878906 2.5 13.878906 2.488281 13.878906 Z M 2.488281 13.878906"/></g><g fill="#432A59"><g><g><path d="M 0.046875 -4.375 L 0.046875 -5.46875 L 3.890625 -5.46875 L 3.890625 -4.375 L 2.59375 -4.375 L 2.59375 0 L 1.34375 0 L 1.34375 -4.375 Z M 0.046875 -4.375" transform="translate(16.107 13.334)"/></g></g></g><g fill="#432A59"><g><g><path d="M 3.828125 -1.53125 L 1.375 -1.53125 C 1.375 -1.289062 1.445312 -1.113281 1.59375 -1 C 1.75 -0.882812 1.921875 -0.828125 2.109375 -0.828125 C 2.296875 -0.828125 2.441406 -0.851562 2.546875 -0.90625 C 2.660156 -0.957031 2.789062 -1.0625 2.9375 -1.21875 L 3.78125 -0.78125 C 3.425781 -0.195312 2.835938 0.09375 2.015625 0.09375 C 1.503906 0.09375 1.066406 -0.078125 0.703125 -0.421875 C 0.335938 -0.773438 0.15625 -1.195312 0.15625 -1.6875 C 0.15625 -2.1875 0.335938 -2.613281 0.703125 -2.96875 C 1.066406 -3.320312 1.503906 -3.5 2.015625 -3.5 C 2.554688 -3.5 2.992188 -3.34375 3.328125 -3.03125 C 3.671875 -2.71875 3.84375 -2.273438 3.84375 -1.703125 C 3.84375 -1.617188 3.835938 -1.5625 3.828125 -1.53125 Z M 1.40625 -2.1875 L 2.703125 -2.1875 C 2.671875 -2.363281 2.597656 -2.5 2.484375 -2.59375 C 2.367188 -2.6875 2.222656 -2.734375 2.046875 -2.734375 C 1.859375 -2.734375 1.707031 -2.679688 1.59375 -2.578125 C 1.476562 -2.484375 1.414062 -2.351562 1.40625 -2.1875 Z M 1.40625 -2.1875" transform="translate(20.056 13.334)"/></g></g></g><g fill="#432A59"><g><g><path d="M 2.203125 -2.53125 C 1.984375 -2.53125 1.789062 -2.445312 1.625 -2.28125 C 1.46875 -2.125 1.390625 -1.929688 1.390625 -1.703125 C 1.390625 -1.460938 1.46875 -1.257812 1.625 -1.09375 C 1.789062 -0.9375 1.984375 -0.859375 2.203125 -0.859375 C 2.304688 -0.859375 2.40625 -0.867188 2.5 -0.890625 C 2.601562 -0.921875 2.675781 -0.953125 2.71875 -0.984375 L 2.78125 -1.015625 L 3.171875 -0.203125 C 3.140625 -0.179688 3.097656 -0.15625 3.046875 -0.125 C 2.992188 -0.09375 2.867188 -0.0507812 2.671875 0 C 2.472656 0.0625 2.257812 0.09375 2.03125 0.09375 C 1.53125 0.09375 1.09375 -0.078125 0.71875 -0.421875 C 0.34375 -0.773438 0.15625 -1.195312 0.15625 -1.6875 C 0.15625 -2.1875 0.34375 -2.613281 0.71875 -2.96875 C 1.09375 -3.320312 1.53125 -3.5 2.03125 -3.5 C 2.257812 -3.5 2.46875 -3.472656 2.65625 -3.421875 C 2.84375 -3.367188 2.976562 -3.316406 3.0625 -3.265625 L 3.171875 -3.1875 L 2.78125 -2.375 C 2.632812 -2.476562 2.441406 -2.53125 2.203125 -2.53125 Z M 2.203125 -2.53125" transform="translate(24.05 13.334)"/></g></g></g><g fill="#432A59"><g><g><path d="M 0.390625 0 L 0.390625 -5.703125 L 1.5625 -5.703125 L 1.5625 -3.046875 L 1.578125 -3.046875 C 1.890625 -3.347656 2.21875 -3.5 2.5625 -3.5 C 2.726562 -3.5 2.894531 -3.472656 3.0625 -3.421875 C 3.226562 -3.378906 3.382812 -3.3125 3.53125 -3.21875 C 3.6875 -3.132812 3.8125 -3.003906 3.90625 -2.828125 C 4 -2.660156 4.046875 -2.460938 4.046875 -2.234375 L 4.046875 0 L 2.875 0 L 2.875 -1.921875 C 2.875 -2.097656 2.816406 -2.25 2.703125 -2.375 C 2.585938 -2.507812 2.441406 -2.578125 2.265625 -2.578125 C 2.085938 -2.578125 1.925781 -2.507812 1.78125 -2.375 C 1.632812 -2.238281 1.5625 -2.085938 1.5625 -1.921875 L 1.5625 0 Z M 0.390625 0" transform="translate(27.304 13.334)"/></g></g></g><g fill="#432A59"><g><g><path d="M 0.390625 0 L 0.390625 -3.40625 L 1.5625 -3.40625 L 1.5625 -3.046875 L 1.578125 -3.046875 C 1.890625 -3.347656 2.21875 -3.5 2.5625 -3.5 C 2.726562 -3.5 2.894531 -3.472656 3.0625 -3.421875 C 3.226562 -3.378906 3.382812 -3.3125 3.53125 -3.21875 C 3.6875 -3.132812 3.8125 -3.003906 3.90625 -2.828125 C 4 -2.660156 4.046875 -2.460938 4.046875 -2.234375 L 4.046875 0 L 2.875 0 L 2.875 -1.921875 C 2.875 -2.097656 2.816406 -2.25 2.703125 -2.375 C 2.585938 -2.507812 2.441406 -2.578125 2.265625 -2.578125 C 2.085938 -2.578125 1.925781 -2.507812 1.78125 -2.375 C 1.632812 -2.238281 1.5625 -2.085938 1.5625 -1.921875 L 1.5625 0 Z M 0.390625 0" transform="translate(31.684 13.334)"/></g></g></g><g fill="#432A59"><g><g><path d="M 0.71875 -0.40625 C 0.34375 -0.738281 0.15625 -1.164062 0.15625 -1.6875 C 0.15625 -2.21875 0.347656 -2.648438 0.734375 -2.984375 C 1.128906 -3.328125 1.617188 -3.5 2.203125 -3.5 C 2.765625 -3.5 3.242188 -3.328125 3.640625 -2.984375 C 4.035156 -2.648438 4.234375 -2.222656 4.234375 -1.703125 C 4.234375 -1.179688 4.039062 -0.75 3.65625 -0.40625 C 3.269531 -0.0703125 2.785156 0.09375 2.203125 0.09375 C 1.585938 0.09375 1.09375 -0.0703125 0.71875 -0.40625 Z M 1.625 -2.265625 C 1.46875 -2.117188 1.390625 -1.925781 1.390625 -1.6875 C 1.390625 -1.457031 1.460938 -1.269531 1.609375 -1.125 C 1.753906 -0.976562 1.945312 -0.90625 2.1875 -0.90625 C 2.414062 -0.90625 2.601562 -0.976562 2.75 -1.125 C 2.90625 -1.269531 2.984375 -1.460938 2.984375 -1.703125 C 2.984375 -1.929688 2.90625 -2.117188 2.75 -2.265625 C 2.601562 -2.421875 2.414062 -2.5 2.1875 -2.5 C 1.96875 -2.5 1.78125 -2.421875 1.625 -2.265625 Z M 1.625 -2.265625" transform="translate(36.063 13.334)"/></g></g></g><g fill="#432A59"><g><g><path d="M 2.203125 -2.53125 C 1.984375 -2.53125 1.789062 -2.445312 1.625 -2.28125 C 1.46875 -2.125 1.390625 -1.929688 1.390625 -1.703125 C 1.390625 -1.460938 1.46875 -1.257812 1.625 -1.09375 C 1.789062 -0.9375 1.984375 -0.859375 2.203125 -0.859375 C 2.304688 -0.859375 2.40625 -0.867188 2.5 -0.890625 C 2.601562 -0.921875 2.675781 -0.953125 2.71875 -0.984375 L 2.78125 -1.015625 L 3.171875 -0.203125 C 3.140625 -0.179688 3.097656 -0.15625 3.046875 -0.125 C 2.992188 -0.09375 2.867188 -0.0507812 2.671875 0 C 2.472656 0.0625 2.257812 0.09375 2.03125 0.09375 C 1.53125 0.09375 1.09375 -0.078125 0.71875 -0.421875 C 0.34375 -0.773438 0.15625 -1.195312 0.15625 -1.6875 C 0.15625 -2.1875 0.34375 -2.613281 0.71875 -2.96875 C 1.09375 -3.320312 1.53125 -3.5 2.03125 -3.5 C 2.257812 -3.5 2.46875 -3.472656 2.65625 -3.421875 C 2.84375 -3.367188 2.976562 -3.316406 3.0625 -3.265625 L 3.171875 -3.1875 L 2.78125 -2.375 C 2.632812 -2.476562 2.441406 -2.53125 2.203125 -2.53125 Z M 2.203125 -2.53125" transform="translate(40.443 13.334)"/></g></g></g><g fill="#432A59"><g><g><path d="M 0.390625 0 L 0.390625 -3.40625 L 1.5625 -3.40625 L 1.5625 -2.90625 L 1.578125 -2.90625 C 1.585938 -2.925781 1.601562 -2.945312 1.625 -2.96875 C 1.644531 -3 1.6875 -3.046875 1.75 -3.109375 C 1.820312 -3.179688 1.894531 -3.242188 1.96875 -3.296875 C 2.039062 -3.347656 2.132812 -3.394531 2.25 -3.4375 C 2.375 -3.476562 2.5 -3.5 2.625 -3.5 C 2.75 -3.5 2.875 -3.476562 3 -3.4375 C 3.125 -3.40625 3.210938 -3.375 3.265625 -3.34375 L 3.359375 -3.28125 L 2.875 -2.296875 C 2.726562 -2.421875 2.523438 -2.484375 2.265625 -2.484375 C 2.117188 -2.484375 1.992188 -2.453125 1.890625 -2.390625 C 1.796875 -2.328125 1.726562 -2.25 1.6875 -2.15625 C 1.644531 -2.070312 1.613281 -2 1.59375 -1.9375 C 1.570312 -1.875 1.5625 -1.820312 1.5625 -1.78125 L 1.5625 0 Z M 0.390625 0" transform="translate(43.696 13.334)"/></g></g></g><g fill="#432A59"><g><g><path d="M 0.625 -0.421875 C 0.3125 -0.765625 0.15625 -1.1875 0.15625 -1.6875 C 0.15625 -2.195312 0.3125 -2.625 0.625 -2.96875 C 0.945312 -3.320312 1.351562 -3.5 1.84375 -3.5 C 2.289062 -3.5 2.660156 -3.359375 2.953125 -3.078125 L 2.953125 -3.40625 L 4.125 -3.40625 L 4.125 0 L 2.96875 0 L 2.96875 -0.390625 L 2.953125 -0.390625 C 2.660156 -0.0664062 2.289062 0.09375 1.84375 0.09375 C 1.351562 0.09375 0.945312 -0.078125 0.625 -0.421875 Z M 1.625 -2.265625 C 1.46875 -2.117188 1.390625 -1.925781 1.390625 -1.6875 C 1.390625 -1.457031 1.460938 -1.269531 1.609375 -1.125 C 1.753906 -0.976562 1.945312 -0.90625 2.1875 -0.90625 C 2.414062 -0.90625 2.601562 -0.976562 2.75 -1.125 C 2.90625 -1.269531 2.984375 -1.460938 2.984375 -1.703125 C 2.984375 -1.929688 2.90625 -2.117188 2.75 -2.265625 C 2.601562 -2.421875 2.414062 -2.5 2.1875 -2.5 C 1.96875 -2.5 1.78125 -2.421875 1.625 -2.265625 Z M 1.625 -2.265625" transform="translate(46.995 13.334)"/></g></g></g><g fill="#432A59"><g><g><path d="M 0.59375 -3.40625 L 0.59375 -4.65625 L 1.765625 -4.65625 L 1.765625 -3.40625 L 2.484375 -3.40625 L 2.484375 -2.5 L 1.765625 -2.5 L 1.765625 -1.421875 C 1.765625 -1.109375 1.851562 -0.953125 2.03125 -0.953125 C 2.070312 -0.953125 2.117188 -0.957031 2.171875 -0.96875 C 2.222656 -0.988281 2.257812 -1.007812 2.28125 -1.03125 L 2.328125 -1.0625 L 2.609375 -0.109375 C 2.359375 0.0234375 2.070312 0.09375 1.75 0.09375 C 1.53125 0.09375 1.34375 0.0546875 1.1875 -0.015625 C 1.03125 -0.0859375 0.910156 -0.1875 0.828125 -0.3125 C 0.742188 -0.445312 0.679688 -0.585938 0.640625 -0.734375 C 0.609375 -0.878906 0.59375 -1.035156 0.59375 -1.203125 L 0.59375 -2.5 L 0.109375 -2.5 L 0.109375 -3.40625 Z M 0.59375 -3.40625" transform="translate(51.52 13.334)"/></g></g></g><g fill="#432A59"><g><g><path d="M 1.875 -3.5 C 2.070312 -3.5 2.265625 -3.472656 2.453125 -3.421875 C 2.640625 -3.378906 2.78125 -3.335938 2.875 -3.296875 L 3.015625 -3.234375 L 2.625 -2.46875 C 2.363281 -2.601562 2.113281 -2.671875 1.875 -2.671875 C 1.738281 -2.671875 1.644531 -2.65625 1.59375 -2.625 C 1.539062 -2.601562 1.515625 -2.550781 1.515625 -2.46875 C 1.515625 -2.445312 1.515625 -2.425781 1.515625 -2.40625 C 1.523438 -2.394531 1.535156 -2.378906 1.546875 -2.359375 C 1.554688 -2.347656 1.566406 -2.335938 1.578125 -2.328125 C 1.585938 -2.316406 1.601562 -2.300781 1.625 -2.28125 C 1.65625 -2.269531 1.675781 -2.257812 1.6875 -2.25 C 1.707031 -2.25 1.734375 -2.242188 1.765625 -2.234375 C 1.804688 -2.222656 1.832031 -2.210938 1.84375 -2.203125 C 1.863281 -2.191406 1.894531 -2.179688 1.9375 -2.171875 C 1.976562 -2.160156 2.015625 -2.148438 2.046875 -2.140625 C 2.179688 -2.109375 2.296875 -2.066406 2.390625 -2.015625 C 2.492188 -1.960938 2.601562 -1.894531 2.71875 -1.8125 C 2.832031 -1.726562 2.921875 -1.625 2.984375 -1.5 C 3.046875 -1.375 3.078125 -1.226562 3.078125 -1.0625 C 3.078125 -0.289062 2.539062 0.09375 1.46875 0.09375 C 1.21875 0.09375 0.984375 0.0546875 0.765625 -0.015625 C 0.546875 -0.0859375 0.390625 -0.160156 0.296875 -0.234375 L 0.15625 -0.359375 L 0.625 -1.15625 C 0.664062 -1.125 0.710938 -1.085938 0.765625 -1.046875 C 0.828125 -1.003906 0.929688 -0.945312 1.078125 -0.875 C 1.234375 -0.800781 1.363281 -0.765625 1.46875 -0.765625 C 1.707031 -0.765625 1.828125 -0.847656 1.828125 -1.015625 C 1.828125 -1.085938 1.796875 -1.144531 1.734375 -1.1875 C 1.679688 -1.226562 1.578125 -1.273438 1.421875 -1.328125 C 1.273438 -1.378906 1.160156 -1.429688 1.078125 -1.484375 C 0.867188 -1.585938 0.703125 -1.707031 0.578125 -1.84375 C 0.453125 -1.988281 0.390625 -2.175781 0.390625 -2.40625 C 0.390625 -2.75 0.519531 -3.015625 0.78125 -3.203125 C 1.050781 -3.398438 1.414062 -3.5 1.875 -3.5 Z M 1.875 -3.5" transform="translate(54.138 13.334)"/></g></g></g><g fill="#CB9C9A"><g><g><path d="M 1.578125 -5.25 L 1.578125 -1.046875 L 3.390625 -1.046875 L 3.390625 0 L 0.375 0 L 0.375 -5.25 Z M 1.578125 -5.25" transform="translate(16.107 19.239)"/></g></g></g><g fill="#CB9C9A"><g><g><path d="M 0.59375 -0.40625 C 0.289062 -0.738281 0.140625 -1.144531 0.140625 -1.625 C 0.140625 -2.113281 0.289062 -2.523438 0.59375 -2.859375 C 0.90625 -3.191406 1.296875 -3.359375 1.765625 -3.359375 C 2.203125 -3.359375 2.5625 -3.222656 2.84375 -2.953125 L 2.84375 -3.265625 L 3.96875 -3.265625 L 3.96875 0 L 2.84375 0 L 2.84375 -0.375 C 2.5625 -0.0625 2.203125 0.09375 1.765625 0.09375 C 1.296875 0.09375 0.90625 -0.0703125 0.59375 -0.40625 Z M 1.5625 -2.171875 C 1.414062 -2.035156 1.34375 -1.851562 1.34375 -1.625 C 1.34375 -1.40625 1.410156 -1.222656 1.546875 -1.078125 C 1.691406 -0.929688 1.878906 -0.859375 2.109375 -0.859375 C 2.328125 -0.859375 2.503906 -0.929688 2.640625 -1.078125 C 2.785156 -1.222656 2.859375 -1.40625 2.859375 -1.625 C 2.859375 -1.851562 2.785156 -2.035156 2.640625 -2.171875 C 2.492188 -2.316406 2.316406 -2.390625 2.109375 -2.390625 C 1.890625 -2.390625 1.707031 -2.316406 1.5625 -2.171875 Z M 1.5625 -2.171875" transform="translate(19.697 19.239)"/></g></g></g><g fill="#CB9C9A"><g><g><path d="M 3.734375 -2.859375 C 4.046875 -2.523438 4.203125 -2.113281 4.203125 -1.625 C 4.203125 -1.144531 4.046875 -0.738281 3.734375 -0.40625 C 3.429688 -0.0703125 3.046875 0.09375 2.578125 0.09375 C 2.140625 0.09375 1.78125 -0.0625 1.5 -0.375 L 1.5 0 L 0.375 0 L 0.375 -5.46875 L 1.5 -5.46875 L 1.5 -2.953125 C 1.78125 -3.222656 2.140625 -3.359375 2.578125 -3.359375 C 3.046875 -3.359375 3.429688 -3.191406 3.734375 -2.859375 Z M 2.78125 -1.078125 C 2.925781 -1.222656 3 -1.40625 3 -1.625 C 3 -1.851562 2.925781 -2.035156 2.78125 -2.171875 C 2.632812 -2.316406 2.453125 -2.390625 2.234375 -2.390625 C 2.023438 -2.390625 1.847656 -2.316406 1.703125 -2.171875 C 1.554688 -2.035156 1.484375 -1.851562 1.484375 -1.625 C 1.484375 -1.40625 1.550781 -1.222656 1.6875 -1.078125 C 1.832031 -0.929688 2.015625 -0.859375 2.234375 -0.859375 C 2.460938 -0.859375 2.644531 -0.929688 2.78125 -1.078125 Z M 2.78125 -1.078125" transform="translate(24.037 19.239)"/></g></g></g><g fill="#CB9C9A"><g><g><path d="M 1.109375 -1.359375 C 1.304688 -1.359375 1.476562 -1.285156 1.625 -1.140625 C 1.769531 -1.003906 1.84375 -0.832031 1.84375 -0.625 C 1.84375 -0.425781 1.769531 -0.253906 1.625 -0.109375 C 1.476562 0.0234375 1.304688 0.09375 1.109375 0.09375 C 0.910156 0.09375 0.738281 0.0234375 0.59375 -0.109375 C 0.445312 -0.253906 0.375 -0.425781 0.375 -0.625 C 0.375 -0.832031 0.445312 -1.003906 0.59375 -1.140625 C 0.738281 -1.285156 0.910156 -1.359375 1.109375 -1.359375 Z M 1.109375 -1.359375" transform="translate(28.377 19.239)"/></g></g></g></svg>